<svg xmlns="http://www.w3.org/2000/svg" xmlns:xlink="http://www.w3.org/1999/xlink" viewBox="0 0 2355.38 2354"><defs><style>.a{fill:#fff;}.b{fill:url(#a);}</style><linearGradient id="a" x1="2264.94" y1="2824.92" x2="708.84" y2="129.68" gradientUnits="userSpaceOnUse"><stop offset="0.08" stop-color="#f0f"/><stop offset="0.5" stop-color="#4354ff"/><stop offset="0.84" stop-color="aqua"/></linearGradient></defs><path class="a" d="M2313.05,1268a835.59,835.59,0,0,0-67.73-163.37l128.53-237.53-57-57-57-57-57-57-57-57L1908.17,767.5a835.84,835.84,0,0,0-163.37-67.73l-77-258.77H1345.08l-77,258.77a835.59,835.59,0,0,0-163.37,67.73L867.13,639l-57,57-57,57-57,57-57,57L767.5,1104.66A835.59,835.59,0,0,0,699.77,1268l-258.77,77v322.67l258.77,77a835.84,835.84,0,0,0,67.73,163.37L639,2145.69l57,57,57,57,57,57,57,57,237.53-128.53A835.59,835.59,0,0,0,1268,2313.05l77,258.77h322.67l77-258.77a835.84,835.84,0,0,0,163.37-67.73l237.52,128.53,57-57,57-57,57-57,57-57-128.53-237.52a835.84,835.84,0,0,0,67.73-163.37l258.77-77V1345.08Zm-814.33,728.6c-275,0-497.91-222.92-497.91-497.91s222.92-497.91,497.91-497.91,497.91,222.92,497.91,497.91S1773.71,1996.63,1498.72,1996.63Z" transform="translate(-322.31 -323)"/><path class="b" d="M2577.09,2090.66c-98.57-98.57-242.16-124.7-364.6-78.39L987.41,787.2C1033.2,665,1007,521.9,908.65,423.6c-80.93-80.93-192.2-113-297.2-96.3L788.76,504.61,736,736.63,504,789.42,326.62,612.09c-16.75,105,15.35,216.3,96.29,297.25,98.57,98.57,242.16,124.7,364.6,78.39L2012.59,2212.8c-45.79,122.22-19.55,265.3,78.76,363.6,81,80.95,192.24,113,297.25,96.29l-177.33-177.33,52.79-232,232-52.79,177.31,177.31C2690.12,2282.86,2658,2171.6,2577.09,2090.66Z" transform="translate(-322.31 -323)"/></svg>