<svg xmlns="http://www.w3.org/2000/svg" xmlns:xlink="http://www.w3.org/1999/xlink" viewBox="0 0 2355.38 2354"><defs><style>.a{fill:url(#a);}.b{fill:#fff;}</style><linearGradient id="a" x1="2264.94" y1="2824.92" x2="708.84" y2="129.68" gradientUnits="userSpaceOnUse"><stop offset="0.08" stop-color="#f0f"/><stop offset="0.5" stop-color="#4354ff"/><stop offset="0.84" stop-color="aqua"/></linearGradient></defs><path d="M2313.05,1268a835.59,835.59,0,0,0-67.73-163.37l128.53-237.53-57-57-57-57-57-57-57-57L1908.17,767.5a835.84,835.84,0,0,0-163.37-67.73l-77-258.77H1345.08l-77,258.77a835.59,835.59,0,0,0-163.37,67.73L867.13,639l-57,57-57,57-57,57-57,57L767.5,1104.66A835.59,835.59,0,0,0,699.77,1268l-258.77,77v322.67l258.77,77a835.84,835.84,0,0,0,67.73,163.37L639,2145.69l57,57,57,57,57,57,57,57,237.53-128.53A835.59,835.59,0,0,0,1268,2313.05l77,258.77h322.67l77-258.77a835.84,835.84,0,0,0,163.37-67.73l237.52,128.53,57-57,57-57,57-57,57-57-128.53-237.52a835.84,835.84,0,0,0,67.73-163.37l258.77-77V1345.08Zm-814.33,728.6c-275,0-497.91-222.92-497.91-497.91s222.92-497.91,497.91-497.91,497.91,222.92,497.91,497.91S1773.71,1996.63,1498.72,1996.63Z" transform="translate(-322.31 -323)"/><path class="a" d="M2577.09,2090.66c-98.57-98.57-242.16-124.7-364.6-78.39L987.41,787.2C1033.2,665,1007,521.9,908.65,423.6c-80.93-80.93-192.2-113-297.2-96.3L788.76,504.61,736,736.63,504,789.42,326.62,612.09c-16.75,105,15.35,216.3,96.29,297.25,98.57,98.57,242.16,124.7,364.6,78.39L2012.59,2212.8c-45.79,122.22-19.55,265.3,78.76,363.6,81,80.95,192.24,113,297.25,96.29l-177.33-177.33,52.79-232,232-52.79,177.31,177.31C2690.12,2282.86,2658,2171.6,2577.09,2090.66Z" transform="translate(-322.31 -323)"/><path class="b" d="M957.69,1024.05a40,40,0,0,1,0-21.12,41,41,0,0,1,10.87-18.59,41.29,41.29,0,0,1,70.29,29,41.39,41.39,0,0,1-30.73,39.87,42.2,42.2,0,0,1-21.12,0,39.28,39.28,0,0,1-18.44-10.56A41,41,0,0,1,957.69,1024.05Z" transform="translate(-322.31 -323)"/><path class="b" d="M1029.08,1135.93l18-18a155.27,155.27,0,0,0,17.33,21.43q12.45,12.45,23.64,1.26l75.17-75.17,24.58,24.59-74.38,74.38q-16.07,16.07-31.43,14.1t-33.18-19.78A202.61,202.61,0,0,1,1029.08,1135.93Z" transform="translate(-322.31 -323)"/><path class="b" d="M1236.61,1138.93l30,29.94L1201.16,1308l-24.9-24.9,17.81-36.09-37.35-37.35-35.93,18-24.27-24.27Zm-31.51,86.35,25.53-51.37-.63-.63-51.38,25.53Z" transform="translate(-322.31 -323)"/><path class="b" d="M1303.75,1206.06l24.9,24.9-54.37,109.2.63.63,109.21-54.36,24.26,24.26-140.09,64.46-30.1-30.1Z" transform="translate(-322.31 -323)"/><path class="b" d="M1446.52,1348.83l29.94,29.94-65.4,139.15-24.9-24.9,17.81-36.09-37.35-37.35-35.93,18-24.27-24.27ZM1415,1435.19l25.53-51.38-.63-.63-51.37,25.53Z" transform="translate(-322.31 -323)"/><path class="b" d="M1454.32,1563.07a116.91,116.91,0,0,1-9.54-14.27,57.92,57.92,0,0,1-7-16.94,34.57,34.57,0,0,1,.71-16.46,35.25,35.25,0,0,1,9.77-16.39l44.91-44.91q30.88-30.88,78.32,16.54,12.13,12.13,29,35.93L1582,1525q-13.87-22.69-27.73-36.56-5.83-5.84-9.38-8.75a39,39,0,0,0-8.27-5.12q-9.93-4.89-18.6,3.78l-43.49,43.5q-13.87,13.86,11.5,39.24,10.88,10.88,35.14,26l-18.59,18.59a232.11,232.11,0,0,1-36.56-29.62A153.18,153.18,0,0,1,1454.32,1563.07Z" transform="translate(-322.31 -323)"/><path class="b" d="M1618.76,1521.07l24.58,24.58-41,41,43.49,43.5,41-41,24.59,24.58L1609.14,1716l-24.58-24.58,43.81-43.81-43.49-43.49-43.81,43.8-24.59-24.58Z" transform="translate(-322.31 -323)"/><path class="b" d="M1760.58,1662.89l30,29.95L1725.13,1832l-24.9-24.9L1718,1771l-37.35-37.35-35.93,18-24.27-24.27Zm-31.51,86.36,25.53-51.37-.63-.63-51.38,25.53Z" transform="translate(-322.31 -323)"/><path class="b" d="M1804.71,1829.62l24.27-98.33,27.89,27.89-18.44,61.62,61.46-18.6,28,28-98.33,23.64-41.29,41.29-24.58-24.59Z" transform="translate(-322.31 -323)"/><path class="b" d="M1906.51,1972.87a39.84,39.84,0,0,1,0-21.12,41,41,0,0,1,10.87-18.6,41.3,41.3,0,0,1,70.29,29,41.42,41.42,0,0,1-30.73,39.87,42.32,42.32,0,0,1-21.12,0,39.4,39.4,0,0,1-18.44-10.56A41,41,0,0,1,1906.51,1972.87Z" transform="translate(-322.31 -323)"/><path class="b" d="M1401,2186.63h112.67q41.16,0,65.22,5.63T1614,2212q11.05,14.08,11,39.22v53.3q0,27.73-11.91,43.33t-37.71,22.11q-25.79,6.49-69.55,6.5h-37.27v91.43H1401Zm110.51,143.44q26.41,0,37.26-6.29t10.84-21.45v-45.06q0-13.87-10.4-18.21-10-4.32-38.57-4.33h-42v95.34Z" transform="translate(-322.31 -323)"/><path class="b" d="M913.54,1869.42l68,68-93.15,191.21,190.6-93.77,64,64L944.18,2297.81,901,2254.6l147.09-147.08-.92-.92L849.8,2203.43l-38.3-38.31,95.29-198.87-1.22-1.22L758.48,2112.11l-43.82-43.82Z" transform="translate(-322.31 -323)"/><path class="b" d="M547.21,1396.67h51.57q-11.28,73.66-11.27,100.54,0,56.32,29,56.33h18.2q13.86,0,21.23-8t7.37-28.81v-32.94q0-92.74,73.67-92.74h20.8q36.82,0,54.17,30.77t17.33,97.51q0,34.67-5.63,88H773.42q7.8-65.44,7.8-90.14,0-34.25-5.64-45.94-6.06-12.57-19.06-12.56H736.58q-22.1,0-22.1,37.27v33.8q0,48.09-17.76,69.77t-54.17,21.66H623.91q-50.26,0-68-36a130.22,130.22,0,0,1-12.79-38.36q-3.68-21-3.68-50.48Q539.41,1456,547.21,1396.67Z" transform="translate(-322.31 -323)"/></svg>