<svg xmlns="http://www.w3.org/2000/svg" viewBox="0 0 2130.5 2314.33"><defs><style>.a{fill:#e83755;}.b{fill:#ffdb06;}</style></defs><polygon class="a" points="1872.86 1479.14 1322.63 1782.33 1322.63 949.32 1872.86 646.13 2130.5 504.17 2130.5 114.13 1065 701.25 1065 2314.33 2130.5 1727.21 2130.5 1337.18 1872.86 1479.14"/><polygon class="a" points="1322.63 390.04 1065 532 1065 141.96 1322.63 0 1322.63 390.04"/><polygon class="b" points="807 390.04 1064.63 532 1064.63 141.96 807 0 807 390.04"/><polygon class="b" points="807.37 559.28 807.37 949.32 807.37 1782.2 807.37 1782.33 257.14 1479.14 257.14 1479.02 257 1478.94 257 1269.68 0.14 1128.14 0.14 1128.02 0 1127.94 0 1727.71 257 1869.33 257 1869.1 1065 2314.33 1065 701.25 807.37 559.28"/></svg>